        <svg
          xmlns="http://www.w3.org/2000/svg"
          xmlns:xlink="http://www.w3.org/1999/xlink"
          viewBox="0 0 48 48"
          version="1.1"
        >
          <g id="surface1">
            <path
              style="
                stroke: none;
                fill-rule: nonzero;
                fill: rgb(9.803922%, 46.666667%, 95.294118%);
                fill-opacity: 1;
              "
              d="M 48 24 C 48 10.746094 37.253906 0 24 0 C 10.746094 0 0 10.746094 0 24 C 0 35.976562 8.773438 45.90625 20.25 47.710938 L 20.25 30.9375 L 14.15625 30.9375 L 14.15625 24 L 20.25 24 L 20.25 18.710938 C 20.25 12.695312 23.835938 9.371094 29.316406 9.371094 C 31.941406 9.371094 34.6875 9.839844 34.6875 9.839844 L 34.6875 15.746094 L 31.660156 15.746094 C 28.679688 15.746094 27.75 17.597656 27.75 19.496094 L 27.75 24 L 34.40625 24 L 33.34375 30.9375 L 27.75 30.9375 L 27.75 47.710938 C 39.226562 45.910156 48 35.980469 48 24 Z M 48 24 "
            />
            <path
              style="
                stroke: none;
                fill-rule: nonzero;
                fill: rgb(99.607843%, 99.607843%, 99.607843%);
                fill-opacity: 1;
              "
              d="M 33.34375 30.9375 L 34.40625 24 L 27.75 24 L 27.75 19.496094 C 27.75 17.601562 28.679688 15.746094 31.660156 15.746094 L 34.6875 15.746094 L 34.6875 9.839844 C 34.6875 9.839844 31.941406 9.371094 29.316406 9.371094 C 23.835938 9.371094 20.25 12.695312 20.25 18.710938 L 20.25 24 L 14.15625 24 L 14.15625 30.9375 L 20.25 30.9375 L 20.25 47.710938 C 21.472656 47.902344 22.722656 48 24 48 C 25.277344 48 26.527344 47.898438 27.75 47.710938 L 27.75 30.9375 Z M 33.34375 30.9375 "
            />
          </g>
        </svg>